<?xml version="1.0" encoding="utf-8"?>
<!-- Generator: Adobe Illustrator 24.0.0, SVG Export Plug-In . SVG Version: 6.00 Build 0)  -->
<svg version="1.1" id="Layer_1" xmlns="http://www.w3.org/2000/svg" xmlns:xlink="http://www.w3.org/1999/xlink" x="0px" y="0px"
	 viewBox="0 0 1872 807.53" style="enable-background:new 0 0 1872 807.53;" xml:space="preserve">
<style type="text/css">
	.st0{fill:#FF4200;}
	.st1{fill:#FFFFFF;}
</style>
<g>
	<g>
		<g>
			<g>
				<path d="M350.57,509.2c0,3.45-1.73,3.94-4.68,4.44l-20.71,4.19c-0.74,0.25-2.96,0.74-4.19,0.74c-1.23,0-1.73-0.99-1.73-5.18
					V388.4c0-34.76-4.68-32.79-4.68-38.46c0-1.23,0.99-2.22,2.71-2.71l18.74-6.16c1.48-0.49,2.71-0.74,3.7-0.74
					c3.21,0,4.93,4.68,7.64,12.82c5.42-5.18,15.04-12.82,31.56-12.82c27.37,0,42.65,21.45,42.65,62.87
					c0,43.14-13.31,67.3-45.36,67.3c-14.3,0-20.46-3.7-25.64-6.41V509.2z M350.57,441.16c4.44,2.47,8.38,4.68,18,4.68
					c17.26,0,21.7-12.33,21.7-41.42c0-25.39-4.68-39.45-19.97-39.45c-10.35,0-16.27,6.16-19.72,9.37V441.16z"/>
				<path d="M503.67,461.62c0.25,1.23,0.49,1.23,0.49,1.97c0,3.45-13.07,6.9-24.9,6.9c-30.32,0-30.32-24.9-30.32-47.58V297.18
					c0-3.7,1.73-3.7,4.68-4.44l20.71-4.19c0.74,0,2.96-0.74,3.45-0.74c1.97,0,2.47,0.99,2.47,5.18v134.36c0,7.89,0,14.79,6.9,14.79
					c4.93,0,8.14-2.22,9.62-2.22c0.99,0,1.73,0.49,1.97,1.48L503.67,461.62z"/>
				<path d="M593.9,469.51c-0.99,0.25-2.22,0.99-3.21,0.99c-2.22,0-5.92-8.63-7.15-14.79c-4.93,4.93-13.56,14.79-32.05,14.79
					c-22.68,0-36.98-14.79-36.98-37.97c0-41.66,44.87-41.66,64.35-41.66v-7.64c0-11.09-1.97-18.24-17.5-18.24
					c-13.81,0-27.37,7.4-30.57,7.4c-1.23,0-2.22-1.48-2.47-2.47l-4.93-15.04c-0.49-0.99-0.74-1.97-0.74-2.96
					c0-5.67,24.41-11.59,43.39-11.59c30.82,0,42.4,14.05,42.4,39.69v47.58c0,23.91,6.41,27.12,6.41,32.05
					c0,0.99-0.99,1.73-2.22,2.22L593.9,469.51z M578.86,411.08c-6.16,0-34.76-1.97-34.76,19.72c0,9.61,6.9,16.76,16.27,16.76
					c9.12,0,15.53-6.41,18.49-9.37V411.08z"/>
				<path d="M733.19,344.76l-17.26-2.22c-0.74,0-3.45-0.25-4.44-0.25c-2.22,0-3.45,2.47-4.19,5.18l-13.07,59.42
					c-0.99,4.44-6.9,33.04-8.14,42.65h-0.49c-1.48-8.38-6.41-31.56-9.37-42.65l-16.02-59.66c-0.74-2.47-1.48-4.93-3.45-4.93
					c-0.49,0-3.21,0.25-3.94,0.25l-20.46,2.22c-3.7,0.49-5.42,0.74-5.42,2.71c0.25,1.73,0.99,3.7,1.23,4.19l44.09,129.9
					c0.48,1.45,0.86,2.37,1.96,2.83c-2.99,5.1-7.46,8.29-15.72,8.29c-10.85,0-18.49-6.16-20.96-6.16c-0.74,0-1.73,0.49-2.22,1.73
					l-7.4,16.02c-0.49,0.99-0.99,1.97-0.99,2.96c0,4.68,19.97,11.34,33.53,11.34c13.81,0,29.09-5.18,36.24-23.17
					c5.42-13.56,12.08-38.71,16.52-54.73l24.16-89c0.49-1.97,1.23-3.45,1.23-4.44C738.62,345.5,736.89,345.26,733.19,344.76z"/>
			</g>
			<g>
				<path d="M1079.56,363.52c-0.49,1.23-1.73,2.22-1.97,2.22c-0.74,0-12.82-6.41-28.6-6.41c-9.37,0-16.27,3.45-16.27,11.83
					c0,13.31,22.19,12.33,39.69,23.91c9.61,6.41,16.52,15.78,16.52,30.08c0,22.68-16.02,39.69-42.16,39.69
					c-18.24,0-46.35-9.37-46.35-16.02c0-0.74,0.99-2.22,1.23-3.2l5.42-14.05c0.49-1.23,0.99-2.22,1.97-2.22
					c0.99,0,19.97,10.85,35.25,10.85c8.14,0,15.04-3.45,15.04-12.33c0-14.3-24.16-14.3-40.43-25.15
					c-7.4-4.93-14.55-13.56-14.55-27.86c0-22.44,17.01-40.19,43.64-40.19c15.04,0,38.46,6.41,38.46,12.08
					c0,0.74-0.74,2.22-1.23,3.21L1079.56,363.52z"/>
				<path d="M1147.36,503.56c0,3.45-1.73,3.94-4.68,4.44l-20.71,4.19c-0.74,0.25-2.96,0.74-4.19,0.74c-1.23,0-1.73-0.99-1.73-5.18
					V382.75c0-34.76-4.68-32.79-4.68-38.46c0-1.23,0.99-2.22,2.71-2.71l18.74-6.16c1.48-0.49,2.71-0.74,3.7-0.74
					c3.21,0,4.93,4.68,7.64,12.82c5.42-5.18,15.04-12.82,31.56-12.82c27.37,0,42.65,21.45,42.65,62.87
					c0,43.14-13.31,67.3-45.36,67.3c-14.3,0-20.46-3.7-25.64-6.41V503.56z M1147.36,435.51c4.44,2.47,8.38,4.68,18,4.68
					c17.26,0,21.7-12.33,21.7-41.42c0-25.39-4.68-39.45-19.97-39.45c-10.35,0-16.27,6.16-19.72,9.37V435.51z"/>
				<path d="M1293.56,464.85c-33.28,0-53.5-25.39-53.5-65.09s20.22-65.09,53.5-65.09c33.04,0,53.5,25.39,53.5,65.09
					S1326.84,464.85,1293.56,464.85z M1313.77,399.76c0-22.93-3.21-40.43-20.22-40.43c-17.01,0-20.22,17.5-20.22,40.43
					s2.96,40.43,20.22,40.43C1310.81,440.2,1313.77,422.94,1313.77,399.76z"/>
				<path d="M1406.23,457.21c0,2.71-0.49,3.45-3.45,3.45h-24.41c-2.96,0-3.45-0.74-3.45-3.45v-74.45c0-27.12-6.41-31.56-6.41-37.23
					c0-0.99,0.99-1.73,2.22-2.22l18.74-7.64c0.99-0.25,2.22-0.99,3.21-0.99c2.96,0,7.89,11.09,9.12,19.48
					c4.68-5.67,11.98-19.48,28.74-19.48c7.15,0,14.3,2.47,14.3,5.67c0,0.99-0.25,1.97-0.49,2.47l-7.64,20.71
					c-0.25,0.74-0.99,2.22-1.97,2.22c-1.48,0-5.92-2.71-11.59-2.71c-7.64,0-13.71,8.38-16.91,11.83V457.21z"/>
				<path d="M1534.67,453.51c0.25,1.23,0.49,1.23,0.49,1.97c0,4.68-18,9.37-34.76,9.37c-31.8,0-31.8-24.9-31.8-47.58V361.8h-17.5
					c-2.96,0-3.45-0.74-3.45-3.45v-16.02c0-2.71,0.49-3.45,3.45-3.45h17.5v-31.06c0-3.21,0.49-3.94,3.94-4.44l21.7-2.96
					c0.74,0,1.73-0.25,3.21-0.25c2.22,0,2.47,1.23,2.47,4.19v34.52h28.1c2.22,0,4.19,0,4.19,2.71c0,0.49,0,0.99-0.25,1.97
					l-3.21,14.55c-0.74,3.45-1.48,3.7-4.44,3.7h-24.41v59.66c0,7.89,0,15.04,8.38,15.04c9.86,0,16.02-4.68,19.48-4.68
					c0.99,0,1.73,0.49,1.97,1.48L1534.67,453.51z"/>
			</g>
			<circle class="st0" cx="868.27" cy="411.99" r="114.63"/>
			<g>
				<path class="st1" d="M894.6,469.51c-0.99,0.25-2.22,0.99-3.21,0.99c-2.22,0-5.92-8.63-7.15-14.79
					c-4.93,4.93-13.56,14.79-32.05,14.79c-22.68,0-36.98-14.79-36.98-37.97c0-41.66,44.87-41.66,64.35-41.66v-7.64
					c0-11.09-1.97-18.24-17.5-18.24c-13.81,0-27.37,7.4-30.57,7.4c-1.23,0-2.22-1.48-2.47-2.47l-4.93-15.04
					c-0.49-0.99-0.74-1.97-0.74-2.96c0-5.67,24.41-11.59,43.39-11.59c30.82,0,42.4,14.05,42.4,39.69v47.58
					c0,23.91,6.41,27.12,6.41,32.05c0,0.99-0.99,1.73-2.22,2.22L894.6,469.51z M879.56,411.08c-6.16,0-34.76-1.97-34.76,19.72
					c0,9.61,6.9,16.76,16.27,16.76c9.12,0,15.53-6.41,18.49-9.37V411.08z"/>
			</g>
			<g>
				<path d="M1538.37,296.85c0,0.43-0.1,0.5-0.5,0.5h-2.23c-0.41,0-0.5-0.07-0.5-0.5v-13.06h-3.14c-0.34,0-0.41-0.07-0.41-0.41
					v-2.06c0-0.34,0.07-0.41,0.41-0.41h9.89c0.48,0,0.6,0.05,0.6,0.26c0,0.12-0.02,0.17-0.07,0.34l-0.5,1.9
					c-0.1,0.38-0.36,0.38-0.55,0.38h-2.98V296.85z"/>
				<path d="M1557.42,296.85c0,0.43-0.1,0.5-0.5,0.5h-2.11c-0.41,0-0.5-0.07-0.5-0.5l-0.19-8.14c-0.02-0.86-0.05-2.98-0.05-3.84
					h-0.05c-0.14,0.86-0.58,2.9-0.84,3.77l-1.46,4.68c-0.1,0.34-0.12,0.41-0.53,0.41h-1.49c-0.41,0-0.43-0.07-0.53-0.41l-1.39-4.68
					c-0.26-0.86-0.7-2.9-0.84-3.77h-0.05c0,0.86-0.02,2.98-0.05,3.84l-0.24,8.14c-0.02,0.43-0.1,0.5-0.5,0.5h-1.75
					c-0.41,0-0.53-0.07-0.5-0.5l0.67-15.43c0-0.43,0.1-0.5,0.5-0.5h2.3c0.38,0,0.41,0.02,0.53,0.38l1.94,6.05
					c0.31,0.96,0.58,1.94,0.72,2.88h0.05c0.14-0.94,0.24-1.3,0.77-2.88l2.04-6.05c0.12-0.34,0.14-0.38,0.58-0.38h2.3
					c0.41,0,0.46,0.12,0.5,0.77L1557.42,296.85z"/>
			</g>
		</g>
	</g>
	<path class="st0" d="M1645.08,405.23V218.11H434.4c-207.53-3.24-207.53,183.76-207.53,183.76v187.59h1218.35
		C1653.81,583.11,1645.08,405.23,1645.08,405.23z M1630.99,403.72c0,0-1.88,164.52-172.35,171.57H240.99V393.58
		c0,0,3.88-149.56,172.59-161.43h1217.41V403.72z"/>
</g>
</svg>
